<svg xmlns="http://www.w3.org/2000/svg" viewBox="0 0 64 64">
  <rect width="64" height="64" rx="16" fill="#008f72"/>
  <path
    fill="#fff"
    d="M32 15c-10.5 0-19 7.5-19 16.8 0 4.1 1.7 8 4.8 11l-2.2 7.7 8.4-4.1c2.5 1.3 5.2 2 8 2 10.5 0 19-7.5 19-16.7S42.5 15 32 15Zm0 28.4c-2.5 0-4.9-.7-7-1.9l-1.1-.6-3.7 1.8 1-3.5-.9-.9a9.4 9.4 0 0 1-3-6.6c0-6.5 6.6-11.8 14.7-11.8s14.7 5.3 14.7 11.8S40.1 43.4 32 43.4Z"
  />
  <path fill="#d9fdd3" d="m38.5 24 1.6 4.1 4.1 1.6-4.1 1.6-1.6 4.1-1.6-4.1-4.1-1.6 4.1-1.6 1.6-4.1Z"/>
</svg>
